<svg id="Слой_1" data-name="Слой 1" xmlns="http://www.w3.org/2000/svg" viewBox="0 0 300 213"><defs><style>.cls-1{fill:#fff;}</style></defs><path class="cls-1" d="M146.05,48.68c12.1-8.25,24.08-16.41,36.24-24.68-1.14-1.69-2.13-3.2-3.16-4.69-.87-1.25-1.16-2.53.2-3.54s2.63-.31,3.54,1c1,1.5,2.06,3,3.17,4.61l3.67-2.46c-1-1.57-2-3-3-4.46s-1.46-2.79.18-3.86,2.72.07,3.61,1.4,1.91,2.75,3,4.28l3.68-2.47c-1.08-1.59-2.06-3.1-3.09-4.57-.92-1.31-1.29-2.65.22-3.69s2.62-.18,3.5,1.13,2,2.88,3.14,4.5l3.68-2.45c-1.09-1.63-2.05-3.08-3-4.52-.88-1.29-1.36-2.64.14-3.71s2.73-.14,3.64,1.22,1.9,2.78,3,4.42c2.54-1.71,5-3.36,7.4-5a4.52,4.52,0,0,1,5.35,0A4,4,0,0,1,223,6a7.83,7.83,0,0,1-2.81,3.49C207.74,18,195.25,26.47,182.78,35l-29,19.77c-.62.43-1.23.88-1.42,1,1.14,3.1,2.47,5.82,3.08,8.69a10.1,10.1,0,0,1-.66,5.57c-2.24,5.54-4.81,11-7.16,16.45a4.23,4.23,0,0,0-.1,2.42,39.49,39.49,0,0,1-1.41,23.29c-3.26,8.42-8.62,14.79-18,16.4-3.05.53-6.27.08-9.77.08l-2.76,10.27c2.83.36,5.39.65,7.93,1,9.51,1.38,14.39,7.93,13.19,17.39-1.57,12.45-3,24.9-4.53,37.35-.26,2.17-.47,4.35-.83,6.5a14.21,14.21,0,0,1-16.22,11.68c-8.44-1.17-16.92-2.07-25.39-3.07S75.9,202,76.92,193.43q2.64-22.14,5.37-44.28a14.09,14.09,0,0,1,16.17-12.23c2.58.36,5.18.61,7.76,1a1.49,1.49,0,0,0,2-1.31c.91-3.62,2-7.2,2.82-10.83a2.88,2.88,0,0,0-.83-2.28C100.68,115,97.36,104,97.68,91.7c.07-2.68,1.8-4.24,4.11-4.12s3.71,1.8,3.62,4.54c-.28,8.32,1.57,16,7,22.5,3.63,4.36,8.09,7.25,14.14,6.44a13.45,13.45,0,0,0,9.19-5.89c4.92-6.8,5.83-14.49,4.61-22.59-.18-1.22-.88-1.18-1.82-1.06-4.33.56-8.68,1-13,1.63-5.29.73-9.58-.85-12.81-5.16-2.63-3.5-5.26-7-7.94-10.44A12.85,12.85,0,0,1,103,63.65c1.79-4.13,3.49-8.31,5.26-12.46a12,12,0,0,1,10-7.75c5-.65,9.9-1.41,14.88-1.9a12,12,0,0,1,11,4.67C144.75,47,145.33,47.75,146.05,48.68Zm-2.81,28.85c1.47-3.48,2.68-6.55,4-9.55a5.1,5.1,0,0,0-.72-5.71c-2.55-3.28-5.16-6.54-7.51-10a6.36,6.36,0,0,0-6.88-2.93C128,50,123.8,50.48,119.61,51a4.88,4.88,0,0,0-4.19,3.11q-2.79,6.63-5.58,13.25a4.61,4.61,0,0,0,.72,4.95c2,2.49,3.86,5,5.77,7.56,4.85,6.46,3.93,6.09,11.85,5.12,3-.37,6.06-.8,9.38-1.25-2.7-5.29-6-9.31-11.25-11.52-2.64-1.12-3.65-3.08-2.79-5.32s3.09-2.86,5.73-1.82a26.79,26.79,0,0,1,11.89,9.51C141.76,75.44,142.36,76.3,143.24,77.53Zm-24.05,90.92c3.59.24,5.64-1.2,5.86-3.73s-1.53-4.22-4.45-4.58q-11.09-1.38-22.19-2.7a4.23,4.23,0,0,0-4.86,3.61,4.18,4.18,0,0,0,3.74,4.77C104.76,166.76,112.23,167.62,119.19,168.45ZM96.33,179.21c-3.21-.15-5.1,1.25-5.37,3.57-.28,2.5,1.24,4.39,4,4.74q11.31,1.42,22.61,2.77a4.37,4.37,0,0,0,4.9-3.64,4.28,4.28,0,0,0-3.79-4.76C111,180.92,103.43,180.06,96.33,179.21Z"/></svg>